Coordinates
version=1
nRows=11
nColumns=46
inDegrees=yes

Units are S.I. units (second, meters, Newtons, ...)
Angles are in degrees.

endheader
time	pelvis_tilt	pelvis_list	pelvis_rotation	pelvis_tx	pelvis_ty	pelvis_tz	bb_angle	bb_tx	bb_ty	bb_tz	hip_flexion_r	hip_adduction_r	hip_rotation_r	knee_angle_r	knee_angle_r_beta	ankle_angle_r	subtalar_angle_r	mtp_angle_r	crank_angle_r	hip_flexion_l	hip_adduction_l	hip_rotation_l	knee_angle_l	knee_angle_l_beta	ankle_angle_l	subtalar_angle_l	mtp_angle_l	crank_angle_l	lumbar_extension	lumbar_bending	lumbar_rotation	arm_flex_r	arm_add_r	arm_rot_r	elbow_flex_r	pro_sup_r	wrist_flex_r	wrist_dev_r	arm_flex_l	arm_add_l	arm_rot_l	elbow_flex_l	pro_sup_l	wrist_flex_l	wrist_dev_l
      2.50500000	    -25.06021743	      0.86958232	     -2.70510222	      0.04767305	      1.01575159	     -0.20003193	      0.00000000	      0.50000000	      0.00000000	      0.25000000	     68.47435944	     -6.81273611	     -2.00513371	     80.78295041	      1.40992846	     -8.26201817	     -7.60350353	      0.00000000	      0.00000000	     79.15648000	     -4.61409319	      3.52589000	     59.23122732	      1.03377994	      9.22952544	    -15.55852376	      0.00000000	      0.00000000	    -46.11471827	     -8.48162284	      0.62213035	     89.48523042	    -12.78903858	     27.38805076	     35.27657406	     36.37826407	      0.00000000	      0.00000000	     89.57864126	      1.37357907	     22.77019326	     48.56731068	     35.80449168	      0.00000000	      0.00000000
      2.51000000	    -25.15524086	      0.63064562	     -2.91755810	      0.04858161	      1.01595936	     -0.19985638	      0.00000000	      0.50000000	      0.00000000	      0.25000000	     68.90752959	     -6.61483893	     -2.15643638	     81.69725933	      1.42588617	     -7.77257857	     -7.52352347	      0.00000000	      0.00000000	     78.60793105	     -4.92556755	      3.56198495	     58.19507715	      1.01569570	      8.43198513	    -15.54857876	      0.00000000	      0.00000000	    -46.02104878	     -8.44305242	      0.98939038	     89.47633158	    -12.90647564	     27.29421632	     35.32244769	     36.56684766	      0.00000000	      0.00000000	     89.56636652	      1.40984780	     22.88852655	     48.57119672	     36.05549443	      0.00000000	      0.00000000
      2.51500000	    -25.20755984	      0.46371362	     -3.01172111	      0.04947016	      1.01635095	     -0.19985002	      0.00000000	      0.50000000	      0.00000000	      0.25000000	     69.31605020	     -6.59041027	     -2.26116609	     82.63564286	      1.44226405	     -7.20824986	     -7.23248499	      0.00000000	      0.00000000	     77.96033418	     -5.08162034	      3.61289086	     57.05011892	      0.99571241	      7.50679620	    -15.55421486	      0.00000000	      0.00000000	    -46.00243609	     -8.33908595	      1.15607330	     89.46487327	    -12.89966519	     27.44157343	     35.21049686	     36.73095649	      0.00000000	      0.00000000	     89.55665646	      1.32431548	     23.05471379	     48.46594714	     36.24918159	      0.00000000	      0.00000000
      2.52000000	    -25.26095210	      0.23805505	     -3.19644186	      0.05043964	      1.01670518	     -0.19979354	      0.00000000	      0.50000000	      0.00000000	      0.25000000	     69.72015221	     -6.43146902	     -2.37416068	     83.55015111	      1.45822523	     -6.67045601	     -6.97018795	      0.00000000	      0.00000000	     77.32802709	     -5.36134265	      3.64543550	     55.96606759	      0.97679215	      6.73689992	    -15.41944888	      0.00000000	      0.00000000	    -45.96025349	     -8.24444591	      1.37131822	     89.46521064	    -12.93069158	     28.07294366	     35.07681292	     36.67212846	      0.00000000	      0.00000000	     89.54369251	      1.08833476	     23.38807935	     48.58990867	     36.16343945	      0.00000000	      0.00000000
      2.52500000	    -25.32346113	     -0.02736242	     -3.34829646	      0.05133012	      1.01704386	     -0.19985478	      0.00000000	      0.50000000	      0.00000000	      0.25000000	     70.13421414	     -6.26188495	     -2.50980676	     84.45491286	      1.47401630	     -6.20806354	     -6.88732123	      0.00000000	      0.00000000	     76.71587134	     -5.60262336	      3.74959337	     54.87667004	      0.95777857	      5.72122698	    -15.47021495	      0.00000000	      0.00000000	    -45.90945883	     -8.06799748	      1.74458498	     89.44360772	    -13.00053711	     27.92216850	     35.22771670	     36.73195580	      0.00000000	      0.00000000	     89.53533094	      1.06563197	     23.53835541	     48.41498181	     36.23806593	      0.00000000	      0.00000000
      2.53000000	    -25.39418303	     -0.26859964	     -3.51346754	      0.05238371	      1.01733098	     -0.19994112	      0.00000000	      0.50000000	      0.00000000	      0.25000000	     70.56923027	     -6.11457793	     -2.61790550	     85.38697015	      1.49028377	     -5.62860563	     -6.62729539	      0.00000000	      0.00000000	     76.12041229	     -5.89426155	      3.78658734	     53.85464644	      0.93994090	      4.96119333	    -15.09199906	      0.00000000	      0.00000000	    -45.81443583	     -7.90519394	      1.98032008	     89.42963693	    -12.89646244	     27.95377499	     35.05901983	     36.74808452	      0.00000000	      0.00000000	     89.52846121	      0.87566297	     23.81958768	     48.24291577	     36.25477870	      0.00000000	      0.00000000
      2.53500000	    -25.30959509	     -0.56068489	     -3.58767171	      0.05352743	      1.01813673	     -0.20023527	      0.00000000	      0.50000000	      0.00000000	      0.25000000	     70.78671936	     -6.04119909	     -2.81806521	     86.22275511	      1.50487097	     -5.31343365	     -6.63466567	      0.00000000	      0.00000000	     75.27869891	     -6.09188230	      3.85343861	     52.67070560	      0.91927723	      4.06547092	    -15.08245765	      0.00000000	      0.00000000	    -46.01485741	     -7.59600928	      2.37499085	     89.40487990	    -13.01129984	     27.57225261	     35.54574650	     36.86031270	      0.00000000	      0.00000000	     89.50880145	      0.89163848	     23.79481123	     48.51797201	     36.39707763	      0.00000000	      0.00000000
      2.54000000	    -25.48070379	     -0.84352188	     -3.79334458	      0.05438060	      1.01828495	     -0.20032729	      0.00000000	      0.50000000	      0.00000000	      0.25000000	     71.34912696	     -5.76711878	     -2.86481316	     87.10612678	      1.52028871	     -4.75763298	     -6.19195936	      0.00000000	      0.00000000	     74.80823226	     -6.40430559	      3.97617601	     51.67487449	      0.90189670	      3.12773811	    -14.97537983	      0.00000000	      0.00000000	    -45.72343565	     -7.39910301	      2.63811742	     89.41324250	    -12.77217251	     28.12502999	     34.93494726	     36.80580057	      0.00000000	      0.00000000	     89.50687396	      0.52856974	     24.45604544	     47.94436887	     36.33253022	      0.00000000	      0.00000000
      2.54500000	    -25.51324003	     -1.10182833	     -3.91313845	      0.05544040	      1.01882611	     -0.20057562	      0.00000000	      0.50000000	      0.00000000	      0.25000000	     71.75320122	     -5.62034998	     -2.95725193	     87.97890925	      1.53552164	     -4.40291005	     -6.08541929	      0.00000000	      0.00000000	     74.09640309	     -6.63729364	      4.03113316	     50.52585100	      0.88184246	      2.16447952	    -14.84178638	      0.00000000	      0.00000000	    -45.69990322	     -7.12623253	      2.98306773	     89.40453814	    -12.75604891	     28.09779268	     34.96945214	     36.92211728	      0.00000000	      0.00000000	     89.49414762	      0.34815669	     24.77368207	     47.81843629	     36.46512758	      0.00000000	      0.00000000
      2.55000000	    -25.53472621	     -1.35058532	     -4.06223141	      0.05661490	      1.01938054	     -0.20072897	      0.00000000	      0.50000000	      0.00000000	      0.25000000	     72.15115886	     -5.44104862	     -3.02517898	     88.85239609	      1.55076686	     -4.00331521	     -5.95566573	      0.00000000	      0.00000000	     73.36893119	     -6.90627495	      3.99184555	     49.41907362	      0.86252555	      1.29530349	    -14.81166740	      0.00000000	      0.00000000	    -45.67303427	     -6.89187398	      3.22358279	     89.40176396	    -12.66529917	     28.69332571	     34.93823375	     36.16270338	      0.00000000	      0.00000000	     89.47987497	      0.03092266	     25.27426800	     47.96231724	     36.07186941	      0.00000000	      0.00000000
      2.55500000	    -25.58812757	     -1.65874910	     -4.19431574	      0.05779453	      1.01990018	     -0.20101621	      0.00000000	      0.50000000	      0.00000000	      0.25000000	     72.56501721	     -5.24265714	     -3.13738839	     89.68993186	      1.56538462	     -3.66337767	     -5.90122396	      0.00000000	      0.00000000	     72.69665993	     -7.19118471	      4.03512581	     48.34802782	      0.84383227	      0.43572543	    -14.43668406	      0.00000000	      0.00000000	    -45.62971227	     -6.56967466	      3.56442028	     89.39157352	    -12.61913332	     28.77532176	     34.99450736	     36.14808206	      0.00000000	      0.00000000	     89.45676964	     -0.12417275	     25.34334973	     47.86583254	     36.01285444	      0.00000000	      0.00000000
